<svg width="60.000000" height="60.000000" viewBox="0 0 60 60" fill="none" xmlns="http://www.w3.org/2000/svg" xmlns:xlink="http://www.w3.org/1999/xlink">
	<desc>
			Created with Pixso.
	</desc>
	<defs>
		<clipPath id="clip157_4897">
			<rect id="icon-dostavka" width="60.000000" height="60.000000" fill="white" fill-opacity="0"/>
		</clipPath>
	</defs>
	<g clip-path="url(#clip157_4897)">
		<circle id="bg" cx="30.000000" cy="30.000000" r="30.000000" fill="#FFBC57" fill-opacity="1.000000"/>
		<path id="Vector" d="M13 30.63L13 37.45C13 37.81 13.14 38.16 13.39 38.41C13.65 38.67 14 38.81 14.36 38.81L15.72 38.81C15.72 39.9 16.15 40.94 16.92 41.71C17.69 42.47 18.73 42.9 19.81 42.9C20.9 42.9 21.94 42.47 22.71 41.71C23.47 40.94 23.9 39.9 23.9 38.81L32.09 38.81C32.09 39.9 32.52 40.94 33.28 41.71C34.05 42.47 35.09 42.9 36.18 42.9C37.26 42.9 38.3 42.47 39.07 41.71C39.84 40.94 40.27 39.9 40.27 38.81L41.63 38.81C41.99 38.81 42.34 38.67 42.6 38.41C42.85 38.16 43 37.81 43 37.45L43 21.09C43 20 42.56 18.96 41.8 18.19C41.03 17.43 39.99 17 38.9 17L26.63 17C25.55 17 24.51 17.43 23.74 18.19C22.97 18.96 22.54 20 22.54 21.09L22.54 23.81L19.81 23.81C19.18 23.81 18.55 23.96 17.98 24.25C17.41 24.53 16.92 24.94 16.54 25.45L13.27 29.81C13.23 29.87 13.2 29.94 13.17 30L13.09 30.15C13.03 30.31 13 30.47 13 30.63ZM34.81 38.81C34.81 38.54 34.89 38.28 35.04 38.06C35.19 37.83 35.41 37.66 35.66 37.55C35.9 37.45 36.18 37.42 36.44 37.48C36.71 37.53 36.95 37.66 37.14 37.85C37.33 38.04 37.46 38.28 37.51 38.55C37.57 38.81 37.54 39.09 37.44 39.34C37.33 39.58 37.16 39.8 36.93 39.95C36.71 40.1 36.45 40.18 36.18 40.18C35.82 40.18 35.47 40.03 35.21 39.78C34.96 39.52 34.81 39.17 34.81 38.81ZM25.27 21.09C25.27 20.72 25.41 20.38 25.67 20.12C25.92 19.87 26.27 19.72 26.63 19.72L38.9 19.72C39.27 19.72 39.61 19.87 39.87 20.12C40.12 20.38 40.27 20.72 40.27 21.09L40.27 36.09L39.2 36.09C38.82 35.66 38.35 35.33 37.83 35.1C37.31 34.87 36.75 34.75 36.18 34.75C35.61 34.75 35.04 34.87 34.52 35.1C34 35.33 33.53 35.66 33.15 36.09L25.27 36.09L25.27 21.09ZM22.54 29.27L17.09 29.27L18.72 27.09C18.85 26.92 19.01 26.78 19.2 26.68C19.39 26.59 19.6 26.54 19.81 26.54L22.54 26.54L22.54 29.27ZM18.45 38.81C18.45 38.54 18.53 38.28 18.68 38.06C18.83 37.83 19.04 37.66 19.29 37.55C19.54 37.45 19.82 37.42 20.08 37.48C20.34 37.53 20.59 37.66 20.78 37.85C20.97 38.04 21.1 38.28 21.15 38.55C21.2 38.81 21.18 39.09 21.07 39.34C20.97 39.58 20.8 39.8 20.57 39.95C20.35 40.1 20.08 40.18 19.81 40.18C19.45 40.18 19.1 40.03 18.85 39.78C18.59 39.52 18.45 39.17 18.45 38.81ZM15.72 32L22.54 32L22.54 35.79C21.74 35.07 20.68 34.69 19.6 34.75C18.52 34.81 17.51 35.29 16.79 36.09L15.72 36.09L15.72 32Z" fill="#FFFFFF" fill-opacity="1.000000" fill-rule="nonzero"/>
	</g>
</svg>
