<svg width="48" height="48" viewBox="0 0 48 48" fill="none" xmlns="http://www.w3.org/2000/svg">
<g clip-path="url(#clip0_159_3344)" filter="url(#filter0_d_159_3344)">
<path fill-rule="evenodd" clip-rule="evenodd" d="M20.3843 12.1264C20.3843 11.2591 20.368 10.3918 20.3843 9.51801C20.3934 9.36864 20.3706 9.21902 20.3174 9.07916C20.2641 8.93929 20.1818 8.81238 20.0756 8.70686C19.9695 8.60135 19.8421 8.51966 19.702 8.46726C19.5619 8.41485 19.4121 8.39293 19.2629 8.40293C18.249 8.42901 17.2319 8.40293 16.2148 8.40293C16.1049 8.4034 15.9954 8.39026 15.8888 8.3638C15.8426 8.35769 15.7989 8.33979 15.7617 8.31184C15.7245 8.28387 15.6952 8.24681 15.6765 8.2042C15.6578 8.1616 15.6505 8.1149 15.6551 8.06861C15.6597 8.02232 15.6762 7.978 15.7029 7.93994C15.7498 7.86406 15.8068 7.79495 15.8724 7.73454L23.2694 0.320236C23.361 0.219372 23.4727 0.138783 23.5974 0.0836349C23.722 0.0284875 23.8569 0 23.9931 0C24.1294 0 24.2641 0.0284875 24.3888 0.0836349C24.5134 0.138783 24.6251 0.219372 24.7169 0.320236L32.1007 7.70519C32.2376 7.84213 32.3974 7.99537 32.3061 8.2073C32.2147 8.41924 31.9801 8.40619 31.8008 8.40945C30.8228 8.40945 29.8709 8.43227 28.9091 8.40945C28.7554 8.3976 28.6007 8.41929 28.4561 8.47304C28.3114 8.52678 28.1801 8.61129 28.0714 8.72073C27.9626 8.83016 27.8789 8.96191 27.8259 9.10689C27.773 9.25186 27.7521 9.40659 27.7649 9.5604C27.7649 11.3015 27.7649 13.0426 27.7649 14.7771C27.7739 14.9256 27.7514 15.0744 27.6987 15.2135C27.6461 15.3526 27.5645 15.4791 27.4595 15.5844C27.3545 15.6897 27.2284 15.7716 27.0894 15.8247C26.9504 15.8777 26.8018 15.9008 26.6533 15.8923C24.9189 15.8726 23.1846 15.8923 21.4373 15.8923C21.2922 15.9076 21.1455 15.8904 21.008 15.8418C20.8705 15.7931 20.7456 15.7144 20.6425 15.6112C20.5392 15.508 20.4605 15.3831 20.4119 15.2456C20.3633 15.108 20.346 14.9614 20.3615 14.8162V12.1264H20.3843ZM20.3843 27.8614V25.015C20.374 24.8746 20.3941 24.7337 20.4434 24.6019C20.4925 24.47 20.5695 24.3504 20.6693 24.251C20.7689 24.1516 20.8888 24.075 21.0208 24.0261C21.1528 23.9774 21.2937 23.9578 21.434 23.9684C23.2041 23.9684 24.9711 23.9684 26.7413 23.9684C26.877 23.9675 27.0115 23.9936 27.137 24.045C27.2626 24.0964 27.3766 24.1723 27.4727 24.268C27.5689 24.3639 27.645 24.4778 27.6969 24.6031C27.7486 24.7286 27.7751 24.863 27.7747 24.9988C27.7584 26.8703 27.7747 28.745 27.7747 30.6165C27.7618 30.7735 27.7819 30.9314 27.8335 31.0801C27.8851 31.2289 27.9673 31.3653 28.0746 31.4805C28.1676 31.5773 28.2796 31.6539 28.4036 31.7055C28.5276 31.7571 28.6609 31.7826 28.7951 31.7805H31.5856C31.7052 31.7789 31.8246 31.792 31.941 31.8196C31.9856 31.8256 32.028 31.843 32.064 31.87C32.1 31.897 32.1286 31.9329 32.1469 31.974C32.1651 32.0153 32.1726 32.0604 32.1685 32.1053C32.1645 32.1501 32.149 32.1932 32.1235 32.2304C32.0755 32.3208 32.014 32.4032 31.941 32.475L24.7102 39.6871C24.6224 39.7819 24.5166 39.8582 24.3991 39.9119C24.2816 39.9654 24.1545 39.9953 24.0254 39.9995C23.8962 40.0037 23.7676 39.9824 23.6467 39.9365C23.526 39.8908 23.4154 39.8215 23.3215 39.7327C23.2759 39.6904 23.2302 39.648 23.1846 39.6024L17.258 33.665C16.8515 33.2585 16.4462 32.8488 16.042 32.4359C15.9148 32.3054 15.7681 32.1652 15.8529 31.9598C15.9377 31.7544 16.143 31.7576 16.3256 31.7576H19.3215C19.4634 31.7682 19.6059 31.7482 19.7393 31.699C19.8728 31.6497 19.9941 31.5725 20.0951 31.4724C20.1962 31.3722 20.2746 31.2516 20.325 31.1185C20.3755 30.9855 20.3967 30.8433 20.3875 30.7013C20.3875 29.7525 20.3875 28.8036 20.3875 27.8581L20.3843 27.8614ZM12.319 19.9874C12.319 22.5392 12.319 25.09 12.319 27.6396C12.3214 27.7703 12.3072 27.9006 12.2767 28.0276C12.2705 28.0723 12.253 28.1145 12.2257 28.1503C12.1984 28.186 12.1624 28.2141 12.121 28.2319C12.0797 28.2495 12.0345 28.2563 11.9898 28.2514C11.9451 28.2464 11.9024 28.23 11.8659 28.2038C11.7611 28.1453 11.6656 28.0716 11.5823 27.9853L4.3451 20.7504C4.23516 20.6553 4.14732 20.5372 4.08773 20.4047C4.02813 20.2721 3.99822 20.1281 4.00008 19.9829C4.00195 19.8375 4.03554 19.6943 4.09851 19.5633C4.16149 19.4323 4.25232 19.3166 4.36466 19.2244L11.6182 11.9731C11.7583 11.8329 11.9148 11.6797 12.1235 11.771C12.3321 11.8623 12.319 12.0742 12.319 12.2633V19.9874ZM35.8465 19.9874C35.8465 17.5159 35.8465 15.0445 35.8465 12.5731C35.8422 12.4194 35.8587 12.2659 35.8954 12.1166C35.9031 12.0768 35.9206 12.0396 35.9462 12.0082C35.9717 11.9768 36.0046 11.9521 36.042 11.9363C36.0794 11.9205 36.12 11.9142 36.1603 11.9177C36.2006 11.9213 36.2395 11.9347 36.2735 11.9568C36.3704 12.0035 36.4586 12.0664 36.5342 12.1427C38.925 14.5338 41.3156 16.9193 43.7062 19.2994C43.886 19.4754 43.991 19.7138 43.9995 19.9651C44.008 20.2165 43.9193 20.4615 43.7519 20.6493C43.7062 20.7014 43.6606 20.7502 43.6117 20.7993L38.976 25.4225L36.5506 27.8419C36.4104 27.982 36.2637 28.1353 36.0485 28.0472C35.8334 27.9592 35.8627 27.757 35.8497 27.5745C35.8497 27.506 35.8497 27.4375 35.8497 27.369C35.8497 24.9085 35.8497 22.4479 35.8497 19.9874H35.8465Z" fill="#FF090B"/>
</g>
<defs>
<filter id="filter0_d_159_3344" x="0" y="0" width="48" height="48" filterUnits="userSpaceOnUse" color-interpolation-filters="sRGB">
<feFlood flood-opacity="0" result="BackgroundImageFix"/>
<feColorMatrix in="SourceAlpha" type="matrix" values="0 0 0 0 0 0 0 0 0 0 0 0 0 0 0 0 0 0 127 0" result="hardAlpha"/>
<feOffset dy="4"/>
<feGaussianBlur stdDeviation="2"/>
<feComposite in2="hardAlpha" operator="out"/>
<feColorMatrix type="matrix" values="0 0 0 0 0 0 0 0 0 0 0 0 0 0 0 0 0 0 0.25 0"/>
<feBlend mode="normal" in2="BackgroundImageFix" result="effect1_dropShadow_159_3344"/>
<feBlend mode="normal" in="SourceGraphic" in2="effect1_dropShadow_159_3344" result="shape"/>
</filter>
<clipPath id="clip0_159_3344">
<rect width="40" height="40" fill="white" transform="translate(4)"/>
</clipPath>
</defs>
</svg>
