<svg width="60.000000" height="60.000000" viewBox="0 0 60 60" fill="none" xmlns="http://www.w3.org/2000/svg" xmlns:xlink="http://www.w3.org/1999/xlink">
	<desc>
			Created with Pixso.
	</desc>
	<defs>
		<clipPath id="clip157_4933">
			<rect id="icon-info" width="60.000000" height="60.000000" fill="white" fill-opacity="0"/>
		</clipPath>
	</defs>
	<g clip-path="url(#clip157_4933)">
		<circle id="bg" cx="30.000000" cy="30.000000" r="30.000000" fill="#FFBC57" fill-opacity="1.000000"/>
		<path id="Vector" d="M30 28.5C29.6 28.5 29.22 28.65 28.93 28.93C28.65 29.22 28.5 29.6 28.5 30L28.5 36C28.5 36.39 28.65 36.77 28.93 37.06C29.22 37.34 29.6 37.5 30 37.5C30.39 37.5 30.77 37.34 31.06 37.06C31.34 36.77 31.5 36.39 31.5 36L31.5 30C31.5 29.6 31.34 29.22 31.06 28.93C30.77 28.65 30.39 28.5 30 28.5ZM30.57 22.62C30.2 22.47 29.79 22.47 29.42 22.62C29.24 22.69 29.07 22.79 28.93 22.93C28.8 23.08 28.69 23.24 28.61 23.43C28.53 23.6 28.49 23.8 28.5 24C28.49 24.19 28.53 24.39 28.61 24.57C28.68 24.75 28.79 24.92 28.93 25.06C29.08 25.19 29.24 25.3 29.42 25.38C29.65 25.47 29.9 25.5 30.14 25.48C30.39 25.46 30.62 25.37 30.83 25.24C31.03 25.1 31.2 24.91 31.32 24.7C31.43 24.48 31.49 24.24 31.5 24C31.49 23.6 31.33 23.22 31.06 22.93C30.92 22.79 30.75 22.69 30.57 22.62ZM30 15C27.03 15 24.13 15.87 21.66 17.52C19.19 19.17 17.27 21.51 16.14 24.25C15 27 14.7 30.01 15.28 32.92C15.86 35.83 17.29 38.5 19.39 40.6C21.49 42.7 24.16 44.13 27.07 44.71C29.98 45.29 33 44.99 35.74 43.85C38.48 42.72 40.82 40.8 42.47 38.33C44.12 35.86 45 32.96 45 30C45 28.03 44.61 26.07 43.85 24.25C43.1 22.43 42 20.78 40.6 19.39C39.21 18 37.56 16.89 35.74 16.14C33.91 15.38 31.97 15 30 15ZM30 42C27.62 42 25.3 41.29 23.33 39.97C21.35 38.65 19.82 36.78 18.91 34.59C18 32.39 17.76 29.98 18.23 27.65C18.69 25.33 19.83 23.19 21.51 21.51C23.19 19.83 25.33 18.69 27.65 18.23C29.98 17.76 32.4 18 34.59 18.91C36.78 19.82 38.65 21.35 39.97 23.33C41.29 25.3 42 27.62 42 30C42 33.18 40.73 36.23 38.48 38.48C36.23 40.73 33.18 42 30 42Z" fill="#FFFFFF" fill-opacity="1.000000" fill-rule="nonzero"/>
	</g>
</svg>
